<svg width="14" height="14" viewBox="0 0 14 14" fill="none" xmlns="http://www.w3.org/2000/svg">
<path id="Vector" d="M7 0L7.245 0.773869H8.05L7.42 1.26633L7.665 2.0402L7 1.54774L6.335 2.0402L6.58 1.26633L5.95 0.773869H6.755L7 0ZM7 11.9598L7.245 12.7337H8.05L7.42 13.191L7.665 14L7 13.5075L6.335 14L6.58 13.191L5.95 12.7337H6.755L7 11.9598ZM9.94 10.9749L10.185 11.7487H11.025L10.36 12.2412L10.605 13.0151L9.94 12.5226L9.275 13.0151L9.555 12.2412L8.89 11.7487H9.695L9.94 10.9749ZM11.97 8.93467L12.215 9.70854H13.055L12.39 10.201L12.635 10.9749L11.97 10.4824L11.305 10.9749L11.585 10.201L10.92 9.70854H11.725L11.97 8.93467ZM12.95 5.9799L13.195 6.75377H14L13.335 7.24623L13.58 8.0201L12.95 7.52764L12.285 8.0201L12.53 7.24623L11.865 6.75377H12.67L12.95 5.9799ZM11.97 2.98995L12.215 3.799H13.055L12.39 4.25628L12.635 5.03015L11.97 4.57286L11.305 5.03015L11.585 4.25628L10.92 3.799H11.725L11.97 2.98995ZM9.94 0.949749L10.185 1.75879H11.025L10.36 2.21608L10.605 2.98995L9.94 2.53266L9.275 2.98995L9.555 2.21608L8.89 1.75879H9.695L9.94 0.949749ZM4.06 10.9749L3.815 11.7487H2.975L3.64 12.2412L3.395 13.0151L4.06 12.5226L4.725 13.0151L4.445 12.2412L5.11 11.7487H4.305L4.06 10.9749ZM2.03 8.93467L1.785 9.70854H0.945L1.61 10.201L1.365 10.9749L2.03 10.4824L2.695 10.9749L2.415 10.201L3.08 9.70854H2.275L2.03 8.93467ZM1.05 5.9799L0.805 6.75377H0L0.665 7.24623L0.42 8.0201L1.05 7.52764L1.715 8.0201L1.47 7.24623L2.135 6.75377H1.33L1.05 5.9799ZM2.03 2.98995L1.785 3.799H0.945L1.61 4.25628L1.365 5.03015L2.03 4.57286L2.695 5.03015L2.415 4.25628L3.08 3.799H2.275L2.03 2.98995ZM4.06 0.949749L3.815 1.75879H2.975L3.64 2.21608L3.395 2.98995L4.06 2.53266L4.725 2.98995L4.445 2.21608L5.11 1.75879H4.305L4.06 0.949749Z" fill="#FFCE31"/>
</svg>
